<svg width="790" height="290" viewBox="0 0 790 290" fill="none" xmlns="http://www.w3.org/2000/svg">
<path d="M549.438 239.155V180.32L661.661 3.81348H715.048V82.2607H684.541L624.071 178.141V180.32H789.682V239.155H549.438ZM685.086 282.737V221.178L686.72 195.573V3.81348H757.541V282.737H685.086Z" fill="#E84545"/>
<path d="M0 239.155V180.32L112.223 3.81348H165.611V82.2607H135.104L74.6338 178.141V180.32H240.245V239.155H0ZM135.648 282.737V221.178L137.283 195.573V3.81348H208.103V282.737H135.648Z" fill="#E84545"/>
<path fill-rule="evenodd" clip-rule="evenodd" d="M393.5 0C325.569 0 270 55.069 270 123V167C270 234.931 325.569 290 393.5 290C461.431 290 517 234.931 517 167V123C517 55.069 461.431 0 393.5 0ZM368.973 174.178V178.3H409.707V174.178C409.707 169.599 410.426 165.707 411.864 162.501C413.303 159.238 415.432 156.347 418.251 153.829C421.07 151.253 424.551 148.763 428.693 146.359C434.332 143.096 439.251 139.49 443.451 135.54C447.708 131.533 451.016 126.925 453.375 121.716C455.792 116.45 457 110.353 457 103.427C457 92.6654 454.21 83.707 448.629 76.5517C443.048 69.3392 435.425 63.9584 425.759 60.4094C416.093 56.8031 405.104 55 392.792 55C381.63 55 371.389 56.8604 362.068 60.5811C352.748 64.2446 345.268 70.0261 339.63 77.9255C333.992 85.7677 331.115 95.9855 331 108.579H375.186C375.186 105.259 375.963 102.339 377.516 99.8207C379.127 97.302 381.227 95.3272 383.816 93.8961C386.463 92.4651 389.34 91.7495 392.447 91.7495C395.323 91.7495 397.941 92.3506 400.3 93.5527C402.659 94.7547 404.529 96.4434 405.91 98.6186C407.29 100.794 407.981 103.312 407.981 106.175C407.981 109.38 407.118 112.242 405.392 114.761C403.723 117.28 401.422 119.655 398.488 121.888C395.611 124.12 392.332 126.438 388.649 128.842C384.392 131.59 380.796 134.681 377.862 138.116C374.927 141.493 372.712 145.987 371.216 151.596C369.721 157.206 368.973 164.733 368.973 174.178ZM372.856 229.045C377.632 233.682 383.356 236 390.03 236C394.288 236 398.229 234.941 401.853 232.823C405.478 230.648 408.412 227.757 410.656 224.151C412.958 220.487 414.137 216.423 414.195 211.958C414.137 205.433 411.663 199.852 406.773 195.215C401.94 190.578 396.359 188.26 390.03 188.26C383.356 188.26 377.632 190.578 372.856 195.215C368.138 199.852 365.808 205.433 365.866 211.958C365.808 218.656 368.138 224.351 372.856 229.045Z" fill="#E84545"/>
</svg>
