<svg width="18" height="17" viewBox="0 0 18 17" fill="none" xmlns="http://www.w3.org/2000/svg">
<path d="M9.23787 0.802772C9.0871 0.732409 8.9129 0.732409 8.76213 0.802772L0.324628 4.74027C0.121403 4.83511 -0.00606942 5.0416 0.000222743 5.26578C0.00651487 5.48996 0.145369 5.68898 0.353594 5.77227L8.79109 9.14727C8.9252 9.20091 9.0748 9.20091 9.20891 9.14727L15.75 6.53083V13.125C15.1287 13.125 14.625 13.6287 14.625 14.25V16.5H18V14.25C18 13.6287 17.4963 13.125 16.875 13.125V6.08083L17.6464 5.77227C17.8546 5.68898 17.9935 5.48996 17.9998 5.26578C18.0061 5.0416 17.8786 4.83511 17.6754 4.74027L9.23787 0.802772ZM9 8.01917L1.97777 5.21028L9 1.93324L16.0222 5.21028L9 8.01917Z" fill="#808080"/>
<path d="M4.69751 8.66081C4.55117 8.60594 4.38861 8.61442 4.24878 8.68422C4.10894 8.75402 4.00446 8.87885 3.96036 9.02878L3.39786 10.9413C3.316 11.2196 3.45923 11.5145 3.72859 11.6223L8.79109 13.6473C8.9252 13.7009 9.0748 13.7009 9.20891 13.6473L14.2714 11.6223C14.5408 11.5145 14.684 11.2196 14.6021 10.9413L14.0396 9.02878C13.9955 8.87885 13.8911 8.75402 13.7512 8.68422C13.6114 8.61442 13.4488 8.60594 13.3025 8.66081L9 10.2742L4.69751 8.66081ZM4.62154 10.7678L4.86894 9.9266L8.8025 11.4017C8.92984 11.4494 9.07017 11.4494 9.19751 11.4017L13.1311 9.9266L13.3785 10.7678L9 12.5192L4.62154 10.7678Z" fill="#808080"/>
</svg>
