<svg width="32" height="32" viewBox="0 0 32 32" fill="none" xmlns="http://www.w3.org/2000/svg">
<circle cx="16" cy="16" r="15.5" stroke="white"/>
<path d="M13.667 6.99138C13.8796 7.25053 13.9522 7.6411 13.7608 7.99217C13.1068 9.19222 12.7351 10.5669 12.7351 12.0297C12.7351 16.7202 16.5604 20.5182 21.2735 20.5182C21.8877 20.5182 22.486 20.4538 23.0623 20.3317C23.4564 20.2482 23.8148 20.4264 24.007 20.7001C24.2052 20.9825 24.2468 21.4038 23.9705 21.7429C22.1873 23.9316 19.4589 25.3334 16.4009 25.3334C11.0223 25.3334 6.66669 21.0008 6.66669 15.6617C6.66669 11.6435 9.13319 8.19731 12.6441 6.73679C13.0498 6.56804 13.4477 6.72396 13.667 6.99138ZM12.3343 8.19577C9.67086 9.63269 7.86242 12.4371 7.86242 15.6617C7.86242 20.3522 11.6877 24.1502 16.4009 24.1502C18.7762 24.1502 20.9252 23.1864 22.474 21.6285C22.0804 21.6766 21.6798 21.7013 21.2735 21.7013C15.895 21.7013 11.5394 17.3687 11.5394 12.0297C11.5394 10.6685 11.8227 9.37187 12.3343 8.19577Z" fill="white"/>
</svg>
