<svg width="32" height="32" viewBox="0 0 32 32" fill="none" xmlns="http://www.w3.org/2000/svg">
<circle cx="16" cy="16" r="15.5" stroke="white"/>
<path d="M13.667 6.99144C13.8796 7.25059 13.9522 7.64116 13.7608 7.99223C13.1068 9.19228 12.7351 10.5669 12.7351 12.0298C12.7351 16.7203 16.5604 20.5182 21.2735 20.5182C21.8877 20.5182 22.486 20.4539 23.0623 20.3318C23.4564 20.2483 23.8148 20.4264 24.007 20.7001C24.2052 20.9825 24.2468 21.4038 23.9705 21.7429C22.1873 23.9317 19.4589 25.3334 16.4009 25.3334C11.0223 25.3334 6.66669 21.0008 6.66669 15.6618C6.66669 11.6435 9.13319 8.19738 12.6441 6.73685C13.0498 6.56811 13.4477 6.72402 13.667 6.99144ZM12.3343 8.19583C9.67086 9.63275 7.86242 12.4372 7.86242 15.6618C7.86242 20.3523 11.6877 24.1503 16.4009 24.1503C18.7762 24.1503 20.9252 23.1865 22.474 21.6285C22.0804 21.6766 21.6798 21.7014 21.2735 21.7014C15.895 21.7014 11.5394 17.3688 11.5394 12.0298C11.5394 10.6686 11.8227 9.37193 12.3343 8.19583Z" fill="white"/>
</svg>
