<svg width="18" height="19" viewBox="0 0 18 19" fill="none" xmlns="http://www.w3.org/2000/svg">
<path d="M2.8125 1.0625C2.8125 0.75184 3.06434 0.5 3.375 0.5H14.625C14.9357 0.5 15.1875 0.75184 15.1875 1.0625C15.1875 1.66722 15.1741 2.24275 15.1487 2.79038C16.7639 3.04201 18 4.43916 18 6.125C18 7.98896 16.489 9.5 14.625 9.5C14.3675 9.5 14.1163 9.47106 13.8747 9.41617C12.9861 11.5146 11.7618 12.5405 10.6875 12.8046V15.2483L12.291 15.6492C12.5092 15.7037 12.7143 15.8014 12.8942 15.9363L14.9625 17.4875C15.1562 17.6328 15.2352 17.8857 15.1586 18.1154C15.0821 18.3451 14.8671 18.5 14.625 18.5H3.375C3.13288 18.5 2.91793 18.3451 2.84137 18.1154C2.7648 17.8857 2.84381 17.6328 3.0375 17.4875L5.10575 15.9363C5.28568 15.8014 5.49078 15.7037 5.70897 15.6492L7.3125 15.2483V12.8046C6.2382 12.5405 5.01388 11.5146 4.12531 9.41617C3.8837 9.47106 3.6325 9.5 3.375 9.5C1.51104 9.5 0 7.98896 0 6.125C0 4.43916 1.23605 3.04201 2.85133 2.79038C2.82586 2.24275 2.8125 1.66722 2.8125 1.0625ZM2.92387 3.92024C1.89743 4.12915 1.125 5.03687 1.125 6.125C1.125 7.36764 2.13236 8.375 3.375 8.375C3.49705 8.375 3.61662 8.36533 3.73304 8.34675C3.35911 7.16604 3.07196 5.70817 2.92387 3.92024ZM14.267 8.34675C14.3834 8.36533 14.5029 8.375 14.625 8.375C15.8676 8.375 16.875 7.36764 16.875 6.125C16.875 5.03687 16.1026 4.12915 15.0761 3.92024C14.928 5.70817 14.6409 7.16604 14.267 8.34675ZM3.94155 1.625C3.95001 2.20636 3.97158 2.75672 4.0048 3.27751C4.15031 5.55904 4.5189 7.26722 4.98355 8.52781C5.95598 11.166 7.29415 11.75 7.875 11.75C8.18566 11.75 8.4375 12.0018 8.4375 12.3125V15.2483C8.4375 15.7645 8.08617 16.2145 7.58535 16.3397L5.98183 16.7406C5.90909 16.7588 5.84073 16.7913 5.78075 16.8363L5.0625 17.375H12.9375L12.2192 16.8363C12.1593 16.7913 12.0909 16.7588 12.0182 16.7406L10.4146 16.3397C9.91383 16.2145 9.5625 15.7645 9.5625 15.2483V12.3125C9.5625 12.0018 9.81434 11.75 10.125 11.75C10.7059 11.75 12.044 11.166 13.0164 8.52781C13.4811 7.26722 13.8497 5.55904 13.9952 3.27751C14.0284 2.75672 14.05 2.20636 14.0585 1.625H3.94155Z" fill="#808080"/>
</svg>
