<svg width="19" height="19" viewBox="0 0 19 19" fill="none" xmlns="http://www.w3.org/2000/svg">
<g clip-path="url(#clip0_61_9)">
<path d="M18.3245 9.70731C18.3245 9.09552 18.2749 8.48041 18.1691 7.87854H9.67999V11.3443H14.5413C14.3396 12.462 13.6914 13.4508 12.7423 14.0792V16.3279H15.6425C17.3456 14.7604 18.3245 12.4455 18.3245 9.70731Z" fill="#4285F4"/>
<path d="M9.68002 18.5006C12.1074 18.5006 14.1544 17.7036 15.6458 16.3279L12.7456 14.0792C11.9387 14.6281 10.897 14.939 9.68332 14.939C7.33535 14.939 5.34454 13.3549 4.63023 11.2252H1.63739V13.5434C3.16522 16.5826 6.27711 18.5006 9.68002 18.5006Z" fill="#34A853"/>
<path d="M4.6269 11.2252C4.2499 10.1075 4.2499 8.89709 4.6269 7.77933V5.46112H1.63737C0.360867 8.0042 0.360867 11.0003 1.63737 13.5434L4.6269 11.2252Z" fill="#FBBC04"/>
<path d="M9.68001 4.06224C10.9631 4.0424 12.2033 4.52523 13.1325 5.4115L15.7021 2.84196C14.075 1.31413 11.9155 0.47415 9.68001 0.500606C6.27711 0.500606 3.16522 2.41867 1.63739 5.46111L4.62692 7.77931C5.33792 5.6463 7.33204 4.06224 9.68001 4.06224Z" fill="#EA4335"/>
</g>
<defs>
<clipPath id="clip0_61_9">
<rect width="18" height="18" fill="white" transform="translate(0.5 0.5)"/>
</clipPath>
</defs>
</svg>
