<svg width="18" height="17" viewBox="0 0 18 17" fill="none" xmlns="http://www.w3.org/2000/svg">
<path d="M9.7955 1.18754C9.35616 0.748198 8.64385 0.748196 8.20451 1.18754L0.727252 8.66479C0.507583 8.88446 0.507583 9.24061 0.727252 9.46029C0.946922 9.67995 1.30308 9.67995 1.52275 9.46029L9 1.98303L16.4773 9.46029C16.6969 9.67995 17.0531 9.67995 17.2727 9.46029C17.4924 9.24061 17.4924 8.88446 17.2727 8.66479L14.625 6.01704V2.31254C14.625 2.00188 14.3732 1.75004 14.0625 1.75004H12.9375C12.6268 1.75004 12.375 2.00188 12.375 2.31254V3.76704L9.7955 1.18754Z" fill="#E84545"/>
<path d="M9 3.20454L15.75 9.95454V14.6875C15.75 15.6195 14.9945 16.375 14.0625 16.375H3.9375C3.00552 16.375 2.25 15.6195 2.25 14.6875V9.95454L9 3.20454Z" fill="#E84545"/>
</svg>
