<svg width="486" height="130" viewBox="0 0 486 130" fill="none" xmlns="http://www.w3.org/2000/svg">
<path d="M39.1826 100.04C36.8825 100.481 34.608 100.765 32.3548 100.901C30.1016 101.032 27.8271 101.011 25.5271 100.833C24.1114 100.744 22.7211 100.634 21.3522 100.502C19.979 100.371 18.5888 100.125 17.1773 99.7772C14.3502 99.0692 11.6293 97.9711 9.02315 96.4745C6.41704 94.9779 4.1383 93.1718 2.19541 91.0562C1.48543 90.2634 0.958253 89.318 0.605387 88.2156C0.252522 87.1133 0.052706 85.9474 0.010192 84.7137C-0.0365733 83.48 0.0782143 82.2674 0.341801 81.0803C0.605387 79.889 1.00502 78.8545 1.53644 77.9726C2.1529 77.0018 2.94791 76.1199 3.92148 75.3271C4.89079 74.5343 5.99616 74.051 7.23331 73.8729C8.20263 73.6991 9.15494 73.6736 10.0817 73.8051C11.0086 73.9365 11.9566 74.1358 12.9302 74.3986C14.788 74.9286 16.5524 75.7214 18.2317 76.7771C19.911 77.8327 21.6328 78.8503 23.4014 79.8169C24.3749 80.4359 25.391 80.9616 26.4496 81.4025C27.5082 81.8434 28.6136 82.1105 29.7615 82.1953C30.4672 82.2844 31.2197 82.1953 32.0147 81.9325C32.8097 81.6696 33.2944 81.1863 33.4729 80.4783C33.8258 79.5074 33.6047 78.5408 32.8097 77.5699C32.0147 76.599 31.1729 75.8528 30.2929 75.3229C27.9929 73.8263 25.5866 72.5459 23.0698 71.4902C20.5529 70.4345 18.0531 69.2898 15.5788 68.0519C12.9259 66.7291 10.4771 64.9908 8.22389 62.8286C5.97065 60.6706 4.26584 58.2243 3.12221 55.494C2.06362 53.1156 1.59596 50.6693 1.73201 48.1594C1.8638 45.6495 2.459 43.2668 3.52184 41.0198C4.58044 38.7728 6.01741 36.7039 7.82851 34.8087C9.6396 32.9136 11.7398 31.4382 14.1248 30.3783C14.2991 30.2935 14.6775 30.1366 15.2514 29.9162C15.8254 29.6957 16.4461 29.4752 17.1093 29.2548C17.7725 29.0343 18.389 28.8393 18.9672 28.6612C19.5411 28.4874 19.962 28.3984 20.2256 28.3984C22.7892 27.7836 25.3273 27.4275 27.8483 27.3427C30.3652 27.2579 32.9075 27.3427 35.4711 27.6056C38.6511 28.0465 41.8779 28.8181 45.1473 29.9204C48.4166 31.0227 51.2012 32.7186 53.497 35.008C54.5556 36.1527 55.4867 37.4331 56.2817 38.8406C57.0767 40.2524 57.6081 41.7066 57.8717 43.2032C58.046 44.348 57.9822 45.5817 57.6719 46.9045C57.3615 48.2272 56.8769 49.5034 56.2136 50.7371C55.5504 51.9708 54.7554 53.0944 53.8286 54.1076C52.9018 55.1209 51.907 55.8925 50.8441 56.4225C49.0755 57.3043 47.1327 57.5248 45.0112 57.0839C42.8898 56.6429 40.9469 55.9816 39.1783 55.0997C38.2047 54.6588 37.0101 53.9338 35.5986 52.9163C34.1829 51.903 32.6822 50.9109 31.0921 49.9401C29.5021 48.9734 27.9759 48.1764 26.5176 47.5616C25.0594 46.9469 23.8435 46.8154 22.8742 47.1631C22.1642 47.4259 21.7476 47.8245 21.6158 48.3544C21.484 48.8844 21.5265 49.4779 21.7476 50.1393C21.9687 50.8007 22.3428 51.4409 22.8742 52.0556C23.4056 52.6746 23.9796 53.2003 24.596 53.6413C26.3646 54.964 28.2607 56.0197 30.2971 56.8125C32.3293 57.6054 34.3615 58.3982 36.3936 59.191C37.8051 59.7209 39.1783 60.2509 40.5047 60.7766C41.8312 61.3066 43.1108 61.8789 44.348 62.4937C46.1166 63.2865 47.7491 64.2998 49.2541 65.5335C50.7548 66.7672 52.0388 68.179 53.0974 69.7647C55.1295 72.8511 56.2136 76.3065 56.3454 80.1433C56.4772 83.976 55.661 87.4355 53.8924 90.522C51.8602 93.8713 49.033 96.3855 45.4108 98.0559C44.4373 98.5858 43.4212 99.0013 42.3626 99.3108C41.304 99.6203 40.2411 99.862 39.1826 100.036V100.04Z" fill="white"/>
<path d="M100.819 101.223C96.6656 101.668 92.4695 101.469 88.2266 100.621C83.9837 99.7688 80.0512 98.2722 76.429 96.1269C74.924 95.2323 73.5125 94.2275 72.1861 93.1083C70.8597 91.9932 69.6693 90.7171 68.6064 89.2841C65.6007 85.3497 63.7003 80.7921 62.9053 75.6027C62.4632 72.8342 62.2846 70.0361 62.3739 67.2209C62.4589 64.4058 62.5057 61.5652 62.5057 58.7035C62.5907 55.8417 62.8373 53.0011 63.2326 50.186C63.6323 47.3709 64.4443 44.666 65.6857 42.0713C66.8336 39.748 68.4236 37.6451 70.4558 35.7669C72.4879 33.8888 74.6519 32.371 76.9519 31.2051C79.8684 29.6873 82.9591 28.6358 86.2327 28.055C89.502 27.4742 92.7713 27.2283 96.0407 27.3173C99.0422 27.3173 102.073 27.6098 105.122 28.1907C108.17 28.7715 110.976 29.912 113.539 31.6121C116.809 33.6683 119.151 36.4877 120.567 40.0617C121.536 42.3893 122.11 44.8228 122.289 47.3709C122.463 49.9189 122.463 52.4457 122.289 54.9471C122.11 56.4692 122 57.9658 121.957 59.4412C121.91 60.9166 121.668 62.4132 121.23 63.9352C120.967 64.9188 120.546 65.8346 119.972 66.6867C119.398 67.5389 118.667 68.1833 117.787 68.6327C116.371 69.3492 114.87 69.841 113.28 70.1081C111.69 70.3752 110.1 70.5999 108.51 70.778C105.946 71.0451 103.319 71.202 100.624 71.2486C97.9283 71.2952 95.3009 71.2274 92.7373 71.0493C92.8224 72.3043 93.154 73.5295 93.7322 74.7378C94.3061 75.9461 95.1691 76.7729 96.317 77.218C98.3492 77.9345 100.492 78.0236 102.745 77.4851C104.998 76.9467 107.141 76.4125 109.173 75.8741C110.321 75.5179 111.494 75.2508 112.685 75.0685C113.88 74.8905 115.006 75.0261 116.065 75.4713C117.034 75.8317 117.897 76.3659 118.65 77.0824C119.398 77.7989 119.997 78.6044 120.439 79.4947C121.413 81.2839 121.919 83.2511 121.966 85.3963C122.008 87.5416 121.587 89.4664 120.707 91.1623C119.649 93.2185 118.144 94.872 116.201 96.1269C113.901 97.6447 111.448 98.8106 108.846 99.6161C106.24 100.422 103.566 100.956 100.828 101.227L100.819 101.223ZM92.4695 58.7035C93.0009 58.7035 93.7067 58.7501 94.5909 58.8391C95.4752 58.9282 96.3808 59.0214 97.3076 59.1062C98.2344 59.1953 99.0974 59.2207 99.8924 59.1741C100.687 59.1317 101.261 58.9282 101.614 58.572C102.146 58.0336 102.541 57.2535 102.809 56.2233C103.072 55.1973 103.226 54.0992 103.272 52.9375C103.315 51.7759 103.272 50.6354 103.141 49.5161C103.009 48.4011 102.851 47.4387 102.677 46.6332C102.414 45.3825 101.835 44.2208 100.955 43.1439C100.071 42.0713 99.0124 41.6261 97.7752 41.8042C96.3595 41.9865 95.1691 42.8768 94.1956 44.4879C93.222 46.099 92.6481 47.621 92.4737 49.0498C92.1209 50.5718 92.0103 52.1574 92.1421 53.8109C92.2739 55.4686 92.3845 57.0966 92.4737 58.7077L92.4695 58.7035Z" fill="white"/>
<path d="M148.937 99.7222C147.521 100.362 146.02 100.757 144.43 100.892C142.84 101.028 141.293 101.007 139.792 100.825C137.938 100.731 136.059 100.18 134.159 99.171C132.258 98.1578 130.864 96.7375 129.984 94.8975C129.1 93.244 128.594 91.4294 128.458 89.4495C128.326 87.4738 128.258 85.5194 128.258 83.5903C128.258 79.4524 128.39 75.3399 128.657 71.2487C128.921 67.1574 129.01 63.045 128.921 58.907C128.921 57.0713 128.9 55.2779 128.853 53.5312C128.806 51.7844 128.785 49.9911 128.785 48.151C128.785 46.4043 128.806 44.6364 128.853 42.843C128.895 41.0496 129.138 39.3283 129.58 37.6706C129.933 36.475 130.396 35.3261 130.97 34.2238C131.544 33.1215 132.271 32.1548 133.155 31.3281C134.482 30.1325 136.004 29.1913 137.73 28.5003C139.456 27.8092 141.22 27.4191 143.031 27.3301C144.842 27.2411 146.611 27.4446 148.333 27.9491C150.055 28.4536 151.581 29.3058 152.907 30.5014C154.145 31.6037 155.071 33.007 155.692 34.7071C156.308 36.4114 156.708 38.0861 156.887 39.7396C157.592 38.7305 158.387 37.7173 159.272 36.704C160.156 35.6949 161.083 34.8216 162.056 34.0839C164.089 32.5237 166.41 31.3959 169.016 30.7049C171.622 30.0138 174.164 29.8569 176.639 30.2216C178.407 30.4971 180.108 31.167 181.74 32.2227C183.373 33.2826 184.589 34.5926 185.384 36.1528C185.915 37.2551 186.332 38.5228 186.642 39.9431C186.953 41.3676 187.059 42.7921 186.974 44.2167C186.885 45.6412 186.642 47.0233 186.247 48.3546C185.847 49.69 185.205 50.7669 184.325 51.5936C183.441 52.5137 182.336 53.1114 181.013 53.387C179.508 53.8491 177.986 53.8703 176.439 53.4549C174.891 53.0394 173.369 52.7426 171.864 52.5603C168.595 52.1024 165.589 52.6536 162.851 54.2138C161.967 54.6759 161.236 55.3161 160.662 56.1428C160.088 56.9695 159.578 57.8471 159.136 58.7629C158.957 59.0385 158.757 59.454 158.54 60.0051C158.319 60.5563 158.12 61.1541 157.945 61.7985C157.767 62.4429 157.592 63.0874 157.414 63.7275C157.235 64.372 157.15 64.8298 157.15 65.1054V78.897C157.061 81.5638 156.887 84.2729 156.619 87.0329C156.355 89.7887 155.56 92.3664 154.234 94.7533C153.086 96.8689 151.317 98.5224 148.932 99.718L148.937 99.7222Z" fill="white"/>
<path d="M288.004 98.4544C287.205 98.4544 286.405 98.4756 285.606 98.518C284.807 98.5604 284.05 98.4968 283.344 98.323C282.103 97.9753 280.925 97.5259 279.816 96.9663C278.706 96.4067 277.796 95.652 277.086 94.7023C275.93 93.3244 275.131 91.7473 274.689 89.9793C274.246 88.2114 273.936 86.4647 273.758 84.7391C273.405 80.6012 273.447 76.4803 273.889 72.3848C274.331 68.2893 274.506 64.1683 274.421 60.0304C274.331 58.3939 274.157 56.732 273.889 55.0488C273.626 53.3657 273.005 51.8352 272.031 50.4573C271.321 49.5076 270.395 48.9692 269.247 48.842C268.099 48.7105 267.036 49.037 266.067 49.8129C265.625 50.1605 265.182 50.6777 264.74 51.3646C264.298 52.0556 263.924 52.8103 263.614 53.6285C263.303 54.451 263.04 55.2693 262.819 56.0875C262.598 56.91 262.487 57.5757 262.487 58.0929C262.661 61.8026 262.729 65.4911 262.687 69.1542C262.64 72.8215 262.53 76.51 262.355 80.2154C262.266 81.6823 262.177 83.1069 262.092 84.4847C262.002 85.8669 261.739 87.2448 261.297 88.6227C260.944 90.0048 260.434 91.3615 259.77 92.697C259.107 94.0367 258.159 95.1772 256.922 96.1268C255.863 97.0765 254.579 97.7209 253.079 98.0686C251.574 98.412 250.115 98.4968 248.704 98.3272C247.909 98.3272 247.114 98.3484 246.319 98.3908C245.524 98.4332 244.729 98.3696 243.934 98.1958C242.786 97.9372 241.634 97.5047 240.486 96.9027C239.338 96.3007 238.407 95.5248 237.701 94.5751C236.464 93.1082 235.648 91.4039 235.248 89.4663C234.849 87.5246 234.564 85.6082 234.385 83.7089C234.385 83.1069 234.407 81.8562 234.453 79.9568C234.496 78.0617 234.564 76.0563 234.653 73.9407C234.738 71.8294 234.827 69.824 234.917 67.9247C235.002 66.0295 235.049 64.7364 235.049 64.0454C235.134 62.0612 235.117 60.0559 234.981 58.0293C234.849 56.0028 234.428 54.0822 233.722 52.2719C233.544 51.7546 233.301 51.2374 232.995 50.7201C232.685 50.2029 232.311 49.7705 231.869 49.427C231.159 48.9098 230.3 48.6724 229.284 48.7148C228.268 48.7614 227.405 49.0836 226.699 49.6857C226.257 50.0333 225.836 50.5718 225.44 51.301C225.041 52.0344 224.688 52.8527 224.382 53.76C224.071 54.6673 223.787 55.5491 223.519 56.414C223.255 57.2789 223.119 57.9657 223.119 58.4829C222.941 62.6208 222.941 66.7206 223.119 70.7737C223.293 74.8268 223.293 78.9223 223.119 83.0645C223.03 84.2728 222.919 85.4556 222.788 86.6215C222.656 87.7874 222.367 88.9279 221.924 90.0514C221.572 91.1749 221.083 92.2518 220.466 93.2863C219.846 94.3207 219.051 95.1856 218.081 95.8725C217.108 96.5635 216.049 97.102 214.901 97.4878C213.753 97.8778 212.559 98.1534 211.322 98.3272C209.553 98.501 207.81 98.5646 206.084 98.5222C204.362 98.4756 202.657 98.1534 200.982 97.5514C200.009 97.208 199.06 96.7331 198.134 96.1268C197.207 95.5248 196.433 94.7913 195.812 93.9265C194.928 92.892 194.307 91.7049 193.955 90.3694C193.602 89.0339 193.334 87.673 193.16 86.2951C192.896 84.3109 192.739 82.3734 192.696 80.474C192.649 78.5789 192.586 76.6371 192.496 74.653C192.496 68.4419 192.539 62.2774 192.628 56.1511C192.713 50.0291 193.113 43.907 193.823 37.7807C193.997 36.4028 194.375 35.0419 194.949 33.7064C195.523 32.3709 196.297 31.2262 197.271 30.2765C198.419 29.1573 199.809 28.3814 201.446 27.949C203.078 27.5165 204.694 27.3003 206.284 27.3003C208.052 27.3003 209.817 27.5801 211.585 28.1397C213.354 28.7036 214.897 29.5431 216.223 30.6623C217.55 31.9554 218.519 33.2485 219.14 34.5416C219.846 36.0933 220.288 37.9503 220.466 40.104C224.008 36.2248 228.302 33.681 233.344 32.4727C238.39 31.2644 243.301 31.523 248.083 33.2485C250.116 33.9396 251.999 34.9317 253.725 36.2248C255.451 37.5179 256.977 38.9848 258.308 40.6213C259.545 39.413 260.829 38.2937 262.16 37.2592C263.486 36.2248 264.906 35.3641 266.407 34.6731C269.506 33.2061 272.848 32.3243 276.432 32.019C280.016 31.718 283.446 32.0826 286.72 33.1171C289.288 33.893 291.677 35.1437 293.892 36.8692C296.103 38.5947 297.876 40.5789 299.202 42.8217C299.912 44.1148 300.418 45.5181 300.728 47.0274C301.039 48.5367 301.281 50.0248 301.46 51.4918C301.991 56.325 302.208 61.1073 302.123 65.8515C302.034 70.5956 301.902 75.4246 301.723 80.3426C301.634 82.5854 301.434 84.8282 301.124 87.0709C300.813 89.3137 300.035 91.4251 298.79 93.4092C297.727 95.1348 296.439 96.4279 294.925 97.2885C292.795 98.323 290.487 98.713 288 98.4544H288.004Z" fill="white"/>
<path d="M334.251 96.8646C332.482 97.6574 330.65 98.0983 328.749 98.1873C326.849 98.2721 324.97 98.2297 323.116 98.0559C321.258 97.8778 319.358 97.3733 317.415 96.5339C315.472 95.6987 313.925 94.5285 312.777 93.0319C311.45 91.0944 310.609 88.9576 310.26 86.6216C309.907 84.2897 309.639 81.9749 309.465 79.6812C309.201 75.98 309.112 72.3466 309.201 68.7769C309.291 65.2071 309.423 61.5737 309.601 57.8725C309.601 57.6096 309.622 57.0373 309.669 56.1554C309.712 55.2736 309.754 54.3705 309.801 53.4463C309.843 52.522 309.886 51.6402 309.933 50.8007C309.975 49.9655 310.001 49.4144 310.001 49.1473C310.175 47.2097 310.375 45.2722 310.596 43.3305C310.817 41.3929 311.412 39.5868 312.386 37.9122C313.181 36.5046 314.286 35.3345 315.698 34.4102C317.109 33.486 318.614 32.8882 320.204 32.6253C322.147 32.3625 324.09 32.2098 326.037 32.1632C327.98 32.1208 329.88 32.3625 331.738 32.8882C333.596 33.4181 335.36 34.2746 337.04 35.4659C338.719 36.6572 339.999 38.1326 340.883 39.8963C341.941 41.9229 342.541 44.0597 342.673 46.3067C342.805 48.5537 342.826 50.7795 342.741 52.9841C342.741 53.4251 342.694 54.3281 342.609 55.6933C342.52 57.0585 342.43 58.4915 342.345 59.9881C342.256 61.4889 342.167 62.9177 342.082 64.2828C341.992 65.648 341.95 66.551 341.95 66.992C341.861 69.4594 341.793 71.8845 341.75 74.263C341.703 76.6414 341.593 79.0665 341.419 81.534C341.24 83.2977 341.023 85.1038 340.755 86.9523C340.492 88.805 339.96 90.5687 339.165 92.2391C338.192 94.3547 336.559 95.8979 334.259 96.8646H334.251ZM334.914 23.8959C333.324 24.3368 331.534 24.6039 329.544 24.6887C327.555 24.7777 325.591 24.6463 323.643 24.2902C321.701 23.9383 319.885 23.3447 318.21 22.5053C316.531 21.6701 315.247 20.5466 314.367 19.1348C313.835 18.2529 313.461 17.1972 313.24 15.9635C313.019 14.7298 312.951 13.4324 313.04 12.063C313.13 10.6979 313.351 9.40052 313.704 8.16254C314.057 6.9288 314.541 5.87312 315.162 4.99128C316.488 3.13855 318.299 1.77338 320.595 0.891532C322.538 0.187749 324.549 -0.100547 326.628 0.0308823C328.703 0.162311 330.714 0.493004 332.661 1.02296C334.693 1.64195 336.614 2.63403 338.426 3.9992C340.237 5.36861 341.406 7.06023 341.937 9.08678C342.732 12.1732 342.511 15.1664 341.274 18.0748C340.037 20.9832 337.915 22.9208 334.91 23.8916L334.914 23.8959Z" fill="white"/>
<path d="M380.939 98.7088C380.144 99.065 379.328 99.2642 378.486 99.3109C377.645 99.3533 376.739 99.3787 375.77 99.3787C373.912 99.3787 372.037 99.1794 370.137 98.7767C368.236 98.3781 366.404 97.7295 364.635 96.8391C363.22 96.1269 361.983 95.1051 360.924 93.7696C359.865 92.4342 359.024 91.0139 358.407 89.5003C357.786 87.9867 357.434 86.3884 357.348 84.6968C357.259 83.0094 357.217 81.3178 357.217 79.6262C357.217 79.0029 357.238 77.8031 357.285 76.0225C357.327 74.2418 357.395 72.3509 357.485 70.3498C357.57 68.3487 357.638 66.4578 357.684 64.6771C357.727 62.8965 357.752 61.6967 357.752 61.0734C356.779 61.0734 355.784 61.0056 354.772 60.8742C353.756 60.7427 352.761 60.4078 351.788 59.8736C350.993 59.4284 350.283 58.784 349.666 57.9361C349.046 57.0924 348.603 56.2233 348.34 55.3329C348.076 54.4426 347.919 53.4209 347.876 52.2634C347.83 51.106 347.898 49.9274 348.076 48.7276C348.25 47.5277 348.54 46.3915 348.939 45.3231C349.335 44.2547 349.887 43.4534 350.597 42.9192C351.66 41.9399 352.94 41.2954 354.441 40.986C355.941 40.6765 357.442 40.473 358.947 40.3839C359.3 36.3817 359.763 32.4007 360.337 28.4408C360.911 24.481 362.08 20.678 363.849 17.0319C363.849 16.9429 363.87 16.8793 363.917 16.8326C363.959 16.7902 363.985 16.7224 363.985 16.6334C364.159 15.654 364.47 14.7213 364.912 13.831C365.354 12.9406 365.839 12.0503 366.37 11.16C367.607 9.37933 369.129 7.80218 370.944 6.4243C372.756 5.04641 374.677 3.99921 376.709 3.28695C380.421 1.86667 384.307 0.929704 388.375 0.484541C392.44 0.039377 396.461 -0.0920523 400.436 0.0860132C401.499 0.175046 402.579 0.200484 403.684 0.153848C404.79 0.111451 405.827 0.310715 406.801 0.755878C409.186 1.64621 410.912 3.33783 411.97 5.8265C412.765 7.60716 413.182 9.47685 413.229 11.4313C413.271 13.39 413.072 15.2597 412.634 17.0361C412.192 18.8168 411.35 20.4406 410.117 21.9075C408.88 23.3744 407.421 24.4683 405.742 25.1763C404.237 25.7995 402.694 26.109 401.104 26.109C399.514 26.109 397.966 26.4227 396.466 27.0417C395.05 27.665 393.991 28.6443 393.286 29.9798C392.312 31.6714 391.696 33.4733 391.428 35.3854C391.164 37.3017 390.939 39.235 390.764 41.1895C392.797 41.3675 394.876 41.5032 396.993 41.588C399.114 41.677 401.189 42.0331 403.221 42.6564C404.195 42.9235 405.143 43.3008 406.069 43.7926C406.996 44.2844 407.813 44.9288 408.523 45.7259C409.054 46.3491 409.496 47.1716 409.849 48.1934C410.202 49.2194 410.423 50.2835 410.512 51.3943C410.601 52.5093 410.555 53.5947 410.38 54.6631C410.202 55.7315 409.938 56.6218 409.585 57.3341C409.054 58.5805 408.08 59.5132 406.669 60.1365C405.695 60.6707 404.637 61.0056 403.489 61.137C402.341 61.2685 401.189 61.3829 400.041 61.472C398.272 61.561 396.529 61.6034 394.803 61.6034H389.566C389.476 65.8727 389.498 70.0785 389.634 74.2164C389.765 78.3543 389.566 82.5558 389.038 86.8293C388.86 88.3429 388.528 89.8098 388.044 91.2343C387.559 92.6589 386.87 93.9477 385.99 95.1051C385.28 95.9064 384.511 96.6187 383.669 97.2419C382.827 97.8652 381.922 98.3527 380.952 98.7088H380.939Z" fill="white"/>
<path d="M445.361 129.913C443.503 130.086 441.581 130.002 439.596 129.65C437.606 129.298 435.953 128.458 434.626 127.14C433.653 126.258 432.926 125.113 432.441 123.701C431.956 122.29 431.667 120.835 431.578 119.339C431.489 117.838 431.62 116.363 431.978 114.908C432.33 113.454 432.904 112.153 433.699 111.008C434.758 109.507 436.106 108.252 437.742 107.239C439.375 106.226 440.944 105.234 442.449 104.267C443.95 103.296 445.386 102.24 446.755 101.096C448.124 99.951 449.294 98.6282 450.267 97.1316C451.151 95.8979 451.857 94.6217 452.389 93.299C452.92 91.9762 453.405 90.611 453.847 89.1992C448.456 89.1992 443.108 88.3174 437.806 86.5537C433.653 85.1461 430.073 82.8991 427.071 79.8126C425.303 78.0489 423.823 76.0436 422.629 73.7965C421.434 71.5495 420.397 69.2347 419.513 66.8562C416.949 59.4538 416.065 51.8309 416.86 43.9875C417.123 41.7872 417.655 39.5825 418.45 37.3779C419.245 35.1775 420.524 33.3672 422.293 31.9596C423.441 30.9888 424.746 30.285 426.204 29.8441C427.662 29.4031 429.142 29.1827 430.647 29.1827C432.237 29.0979 433.848 29.3141 435.485 29.8441C437.118 30.374 438.512 31.1668 439.66 32.2225C440.897 33.3672 441.824 34.7324 442.445 36.3223C443.061 37.9079 443.55 39.5401 443.903 41.2148C444.345 43.5085 444.587 45.7979 444.63 48.0873C444.672 50.3809 445.004 52.6704 445.625 54.9598C446.509 58.2201 448.231 60.8232 450.794 62.7607C451.5 63.3797 452.321 63.8418 453.247 64.1471C454.174 64.4566 455.122 64.6558 456.096 64.7406C456.627 61.0394 456.823 57.3382 456.691 53.637C456.559 49.9358 456.58 46.2346 456.759 42.5333C456.844 41.2996 456.98 40.0871 457.154 38.9C457.333 37.7086 457.686 36.5427 458.217 35.398C458.659 34.5162 459.412 33.7233 460.47 33.0196C461.533 32.3158 462.724 31.7222 464.05 31.2347C465.377 30.7513 466.72 30.374 468.093 30.1112C469.462 29.8483 470.631 29.6702 471.605 29.5812C473.284 29.4964 474.963 29.6914 476.643 30.1748C478.322 30.6623 479.734 31.4763 480.886 32.621C481.859 33.5919 482.654 34.6476 483.271 35.7923C483.887 36.937 484.376 38.1283 484.729 39.3621C485.524 42.1815 485.941 45.0899 485.987 48.0873C486.03 51.0847 485.966 54.0355 485.788 56.9439C485.167 63.8164 484.55 70.7355 483.93 77.697C483.309 84.6585 481.94 91.4462 479.819 98.0558C478.845 100.786 477.676 103.432 476.307 105.988C474.934 108.545 473.412 110.966 471.732 113.259C469.789 115.905 467.643 118.393 465.304 120.729C462.962 123.061 460.377 125.024 457.55 126.61C455.692 127.581 453.728 128.327 451.653 128.857C449.574 129.387 447.478 129.739 445.357 129.913H445.361Z" fill="white"/>
</svg>
