<svg width="628" height="156" viewBox="0 0 628 156" fill="none" xmlns="http://www.w3.org/2000/svg">
<path d="M77.7421 0C73.534 0 69.4082 0.335887 65.3839 0.982312C28.3223 6.89519 0 39.0136 0 77.742C0 98.1614 7.87117 116.743 20.7426 130.616C21.8517 131.807 21.8327 133.651 20.6856 134.799L5.12703 150.357C3.23212 152.252 4.57567 155.484 7.25009 155.484H77.0766C119.912 155.484 155.56 120.438 155.484 77.6026C155.408 34.7295 120.634 0 77.7421 0ZM37.7968 53.9131C36.1047 52.6646 35.7435 50.2817 36.9856 48.5896C38.025 47.1826 43.678 40.1734 53.6152 40.1544H53.6596C63.6158 40.1544 69.2942 47.1763 70.3335 48.5832C71.5757 50.2817 71.2144 52.6646 69.5223 53.9131C67.8239 55.1615 65.441 54.794 64.1925 53.1019C63.7932 52.5568 60.0858 47.772 53.6596 47.772H53.6279C47.2207 47.7847 43.5259 52.5568 43.1267 53.1019C42.3788 54.1159 41.2254 54.6545 40.053 54.6545C39.2671 54.6545 38.4813 54.4137 37.7968 53.9131ZM77.7421 115.33C56.9297 115.33 40.0593 98.4593 40.0593 77.647C50.1803 75.5556 62.9567 73.7874 77.7421 73.7874C88.0785 73.7874 100.944 74.6493 115.431 77.647C115.431 98.4593 98.5607 115.33 77.7421 115.33ZM117.687 53.9131C115.995 55.1615 113.606 54.794 112.364 53.1019C111.958 52.5568 108.251 47.772 101.825 47.772H101.799C95.3856 47.7847 91.6909 52.5568 91.2916 53.1019C90.5438 54.1159 89.3904 54.6545 88.2179 54.6545C87.4384 54.6545 86.6462 54.4137 85.9681 53.9131C84.2697 52.6646 83.9084 50.2817 85.1569 48.5896C86.1899 47.1826 91.8493 40.1734 101.78 40.1544H101.825C111.781 40.1544 117.459 47.1763 118.498 48.5832C119.741 50.2817 119.379 52.6646 117.687 53.9131Z" fill="white"/>
<path d="M228.2 117.415C226.141 117.808 224.106 118.068 222.091 118.188C220.076 118.308 218.035 118.289 215.982 118.131C214.714 118.049 213.472 117.953 212.243 117.833C211.013 117.713 209.771 117.497 208.504 117.18C205.975 116.547 203.541 115.558 201.209 114.214C198.877 112.871 196.836 111.248 195.1 109.353C194.466 108.644 193.991 107.794 193.674 106.806C193.357 105.817 193.179 104.771 193.141 103.662C193.103 102.553 193.199 101.47 193.439 100.399C193.674 99.3339 194.035 98.4023 194.504 97.6101C195.055 96.7419 195.765 95.9497 196.64 95.2399C197.508 94.5301 198.497 94.0928 199.606 93.9344C200.474 93.7759 201.323 93.7569 202.153 93.8773C202.984 93.9977 203.833 94.1752 204.701 94.4097C206.361 94.885 207.94 95.5948 209.448 96.5454C210.95 97.496 212.49 98.4023 214.074 99.2769C214.942 99.8282 215.855 100.304 216.799 100.703C217.75 101.102 218.739 101.337 219.765 101.413C220.399 101.495 221.071 101.413 221.781 101.178C222.49 100.944 222.928 100.506 223.086 99.8726C223.403 99.0044 223.207 98.1361 222.49 97.2616C221.781 96.3933 221.026 95.7215 220.234 95.2462C218.175 93.9027 216.026 92.7556 213.77 91.805C211.514 90.8543 209.283 89.8277 207.071 88.7186C204.701 87.5335 202.502 85.9745 200.487 84.0352C198.471 82.0959 196.944 79.9032 195.917 77.4505C194.967 75.3148 194.555 73.122 194.669 70.8659C194.789 68.6097 195.322 66.474 196.272 64.4587C197.223 62.4434 198.503 60.5865 200.125 58.8817C201.748 57.1832 203.624 55.8587 205.759 54.9081C205.918 54.832 206.254 54.6926 206.767 54.4898C207.28 54.2933 207.832 54.0969 208.428 53.8941C209.023 53.6976 209.575 53.5202 210.088 53.3617C210.601 53.2033 210.975 53.1272 211.216 53.1272C213.51 52.5759 215.785 52.259 218.035 52.1766C220.291 52.1006 222.56 52.1766 224.854 52.4111C227.7 52.8104 230.59 53.5012 233.511 54.4898C236.433 55.4785 238.924 56.9994 240.983 59.0591C241.934 60.0858 242.764 61.2329 243.474 62.5004C244.184 63.7679 244.659 65.0734 244.9 66.417C245.058 67.4436 245.001 68.5527 244.722 69.7378C244.443 70.9229 244.013 72.07 243.417 73.1791C242.821 74.2881 242.111 75.2958 241.281 76.2021C240.451 77.1147 239.564 77.8054 238.613 78.2808C237.029 79.0729 235.292 79.2694 233.391 78.8765C231.496 78.4836 229.753 77.8878 228.175 77.0956C227.307 76.7027 226.236 76.05 224.975 75.1374C223.707 74.2311 222.364 73.3375 220.944 72.4693C219.518 71.601 218.156 70.8912 216.85 70.3335C215.545 69.7822 214.454 69.6618 213.586 69.9786C212.952 70.2131 212.579 70.5744 212.458 71.0433C212.338 71.5186 212.376 72.051 212.579 72.6467C212.775 73.2424 213.111 73.8128 213.586 74.3642C214.062 74.9155 214.575 75.3909 215.126 75.7901C216.704 76.9752 218.409 77.9259 220.228 78.6357C222.047 79.3455 223.866 80.0616 225.684 80.7714C226.946 81.2467 228.175 81.722 229.36 82.1973C230.545 82.6726 231.692 83.186 232.802 83.7373C234.38 84.4471 235.844 85.3597 237.187 86.4688C238.531 87.5779 239.678 88.839 240.628 90.265C242.447 93.0344 243.417 96.1335 243.537 99.5747C243.658 103.016 242.922 106.121 241.344 108.885C239.526 111.888 236.997 114.145 233.752 115.647C232.884 116.122 231.971 116.496 231.027 116.775C230.076 117.054 229.132 117.269 228.181 117.427L228.2 117.415Z" fill="white"/>
<path d="M283.349 118.48C279.629 118.879 275.877 118.701 272.081 117.941C268.285 117.174 264.768 115.837 261.523 113.91C260.18 113.112 258.912 112.205 257.727 111.204C256.542 110.203 255.471 109.056 254.526 107.775C251.839 104.246 250.135 100.151 249.425 95.4998C249.026 93.0155 248.873 90.5058 248.949 87.9772C249.026 85.4485 249.07 82.9008 249.07 80.3341C249.146 77.7675 249.368 75.2198 249.723 72.6911C250.078 70.1625 250.806 67.7352 251.915 65.4093C252.942 63.3243 254.368 61.4357 256.187 59.75C258.006 58.0642 259.939 56.7016 261.998 55.6559C264.609 54.2934 267.373 53.3491 270.3 52.8294C273.222 52.3097 276.15 52.0879 279.078 52.1703C281.765 52.1703 284.477 52.4302 287.203 52.9498C289.928 53.4695 292.437 54.4962 294.732 56.0172C297.653 57.8614 299.751 60.39 301.018 63.5968C301.887 65.6819 302.4 67.8683 302.558 70.1561C302.717 72.444 302.717 74.7128 302.558 76.9563C302.4 78.3188 302.298 79.6624 302.26 80.9869C302.222 82.3114 302.001 83.655 301.608 85.0175C301.373 85.8985 300.993 86.7223 300.48 87.4828C299.966 88.2433 299.314 88.8264 298.521 89.2256C297.254 89.8657 295.91 90.3094 294.491 90.5502C293.065 90.791 291.645 90.9938 290.219 91.1522C287.925 91.3931 285.574 91.5325 283.159 91.5705C280.745 91.6149 278.393 91.5515 276.099 91.3931C276.175 92.5148 276.473 93.6175 276.987 94.7012C277.5 95.785 278.273 96.5264 279.3 96.9257C281.119 97.5658 283.039 97.6482 285.054 97.1665C287.069 96.6849 288.99 96.2032 290.809 95.7216C291.835 95.4047 292.887 95.1639 293.952 94.9991C295.017 94.8407 296.031 94.9611 296.975 95.3603C297.843 95.6836 298.616 96.1652 299.288 96.8053C299.96 97.4454 300.492 98.1679 300.892 98.9727C301.76 100.576 302.216 102.344 302.254 104.271C302.292 106.197 301.918 107.921 301.126 109.449C300.175 111.293 298.832 112.782 297.095 113.904C295.036 115.266 292.843 116.312 290.511 117.035C288.179 117.757 285.783 118.239 283.337 118.48H283.349ZM275.877 80.3278C276.353 80.3278 276.987 80.3658 277.772 80.4482C278.565 80.5306 279.376 80.613 280.206 80.689C281.036 80.7714 281.809 80.7904 282.519 80.7524C283.229 80.7144 283.742 80.5306 284.059 80.2137C284.534 79.7321 284.889 79.0286 285.124 78.1097C285.358 77.1907 285.498 76.2021 285.542 75.1627C285.58 74.1234 285.542 73.0967 285.422 72.0954C285.301 71.0941 285.162 70.2322 285.003 69.5097C284.769 68.388 284.249 67.3423 283.463 66.379C282.671 65.4157 281.721 65.0164 280.618 65.1749C279.35 65.3396 278.286 66.1382 277.417 67.5831C276.549 69.0281 276.036 70.3906 275.877 71.6771C275.561 73.0397 275.459 74.4656 275.58 75.9486C275.7 77.4316 275.795 78.8955 275.877 80.3405V80.3278Z" fill="white"/>
<path d="M326.406 117.136C325.139 117.713 323.795 118.061 322.376 118.188C320.95 118.315 319.568 118.289 318.225 118.125C316.564 118.042 314.885 117.548 313.186 116.642C311.488 115.735 310.239 114.455 309.447 112.807C308.655 111.324 308.205 109.696 308.085 107.921C307.964 106.147 307.907 104.398 307.907 102.661C307.907 98.9474 308.028 95.2589 308.262 91.5895C308.497 87.9201 308.579 84.2254 308.497 80.5116C308.497 78.8638 308.478 77.2541 308.44 75.6887C308.401 74.1234 308.382 72.5137 308.382 70.8659C308.382 69.3006 308.401 67.7098 308.44 66.1001C308.478 64.4904 308.693 62.9441 309.092 61.4611C309.409 60.39 309.821 59.357 310.341 58.3684C310.854 57.3797 311.507 56.5115 312.299 55.77C313.484 54.699 314.847 53.8497 316.393 53.235C317.939 52.6203 319.517 52.2654 321.14 52.183C322.762 52.1006 324.34 52.2844 325.887 52.7407C327.427 53.197 328.796 53.9575 329.981 55.0285C331.09 56.0172 331.92 57.2783 332.471 58.8057C333.023 60.333 333.378 61.835 333.536 63.3243C334.17 62.418 334.88 61.5118 335.672 60.5992C336.464 59.6929 337.294 58.9071 338.162 58.248C339.981 56.8474 342.054 55.8334 344.392 55.2186C346.724 54.5976 348.999 54.4581 351.211 54.7877C352.789 55.0349 354.317 55.6369 355.781 56.5812C357.245 57.5318 358.328 58.7043 359.044 60.1048C359.52 61.0935 359.894 62.2279 360.172 63.5081C360.451 64.7883 360.546 66.0684 360.47 67.3423C360.388 68.6224 360.172 69.8583 359.818 71.056C359.463 72.2538 358.886 73.2235 358.1 73.965C357.308 74.7888 356.319 75.3275 355.134 75.5747C353.791 75.9866 352.422 76.0056 351.04 75.638C349.659 75.2641 348.29 74.998 346.946 74.8332C344.018 74.4213 341.331 74.9156 338.878 76.3162C338.086 76.7281 337.434 77.3048 336.92 78.0463C336.407 78.7878 335.951 79.5736 335.558 80.3975C335.399 80.6447 335.222 81.0186 335.025 81.5129C334.829 82.0072 334.651 82.5459 334.493 83.1226C334.335 83.6993 334.176 84.2761 334.018 84.8528C333.859 85.4295 333.783 85.8414 333.783 86.0886V98.4657C333.701 100.861 333.549 103.289 333.308 105.766C333.073 108.238 332.357 110.551 331.172 112.693C330.145 114.595 328.561 116.078 326.425 117.149L326.406 117.136Z" fill="white"/>
<path d="M450.843 115.995C450.127 115.995 449.411 116.014 448.695 116.052C447.978 116.09 447.3 116.033 446.667 115.881C445.558 115.571 444.499 115.165 443.511 114.664C442.522 114.164 441.704 113.486 441.071 112.63C440.038 111.394 439.321 109.981 438.922 108.39C438.523 106.806 438.25 105.241 438.086 103.688C437.769 99.974 437.807 96.2793 438.206 92.6035C438.599 88.9278 438.757 85.233 438.681 81.5193C438.599 80.049 438.447 78.5597 438.206 77.0513C437.972 75.543 437.414 74.1678 436.546 72.932C435.912 72.0827 435.082 71.5947 434.055 71.4807C433.028 71.3666 432.078 71.6518 431.209 72.3489C430.81 72.6594 430.417 73.1221 430.024 73.7432C429.625 74.3642 429.289 75.0423 429.017 75.7775C428.738 76.5126 428.503 77.2478 428.307 77.9829C428.11 78.7181 428.009 79.3202 428.009 79.7828C428.167 83.11 428.225 86.4181 428.187 89.7073C428.148 92.9965 428.047 96.3046 427.889 99.6318C427.806 100.95 427.73 102.224 427.654 103.46C427.572 104.695 427.337 105.938 426.944 107.173C426.627 108.416 426.171 109.632 425.582 110.83C424.986 112.028 424.137 113.055 423.034 113.904C422.083 114.753 420.936 115.336 419.593 115.647C418.249 115.957 416.944 116.033 415.676 115.881C414.966 115.881 414.25 115.9 413.541 115.938C412.831 115.976 412.115 115.919 411.405 115.767C410.378 115.533 409.345 115.146 408.318 114.607C407.292 114.069 406.462 113.372 405.828 112.516C404.719 111.198 403.99 109.67 403.635 107.934C403.28 106.191 403.02 104.474 402.862 102.769C402.862 102.23 402.881 101.108 402.919 99.4037C402.957 97.7052 403.02 95.9054 403.096 94.0041C403.172 92.1092 403.255 90.3094 403.331 88.6046C403.407 86.9061 403.451 85.74 403.451 85.1253C403.527 83.3445 403.508 81.5446 403.394 79.7258C403.274 77.9069 402.9 76.1831 402.266 74.5607C402.108 74.0981 401.892 73.6291 401.613 73.1664C401.335 72.7038 400.999 72.3172 400.606 72.0067C399.972 71.544 399.199 71.3286 398.293 71.3666C397.38 71.4046 396.613 71.6961 395.979 72.2348C395.58 72.5454 395.206 73.027 394.851 73.6861C394.496 74.3452 394.179 75.0804 393.901 75.8916C393.622 76.7028 393.368 77.5013 393.127 78.2745C392.893 79.0476 392.773 79.6687 392.773 80.1314C392.614 83.8451 392.614 87.5209 392.773 91.1586C392.931 94.7963 392.931 98.4721 392.773 102.186C392.69 103.27 392.595 104.334 392.475 105.38C392.354 106.426 392.101 107.452 391.702 108.454C391.385 109.461 390.947 110.425 390.396 111.356C389.845 112.288 389.129 113.061 388.26 113.676C387.392 114.297 386.441 114.778 385.415 115.127C384.388 115.476 383.317 115.723 382.214 115.881C380.63 116.033 379.071 116.097 377.531 116.052C375.991 116.014 374.464 115.723 372.962 115.184C372.093 114.873 371.244 114.449 370.414 113.91C369.584 113.372 368.893 112.712 368.335 111.939C367.543 111.008 366.992 109.949 366.675 108.745C366.358 107.547 366.123 106.331 365.965 105.088C365.731 103.308 365.591 101.571 365.547 99.8663C365.509 98.1679 365.445 96.425 365.369 94.6442C365.369 89.0736 365.407 83.5409 365.49 78.0463C365.566 72.5517 365.921 67.0571 366.554 61.5625C366.713 60.3267 367.049 59.1035 367.562 57.9058C368.075 56.708 368.766 55.6813 369.641 54.8321C370.667 53.8244 371.916 53.1336 373.38 52.7407C374.844 52.3541 376.289 52.1577 377.708 52.1577C379.286 52.1577 380.871 52.4112 382.455 52.9118C384.033 53.4188 385.421 54.173 386.606 55.1743C387.791 56.3341 388.66 57.4938 389.217 58.6599C389.851 60.0542 390.244 61.7209 390.402 63.6539C393.571 60.1682 397.412 57.8867 401.924 56.803C406.436 55.7193 410.834 55.9538 415.112 57.5002C416.931 58.1212 418.617 59.0085 420.163 60.1682C421.71 61.328 423.072 62.6462 424.264 64.1165C425.373 63.0328 426.52 62.0251 427.711 61.0999C428.896 60.1682 430.164 59.4014 431.514 58.7803C434.283 57.4685 437.274 56.6699 440.481 56.4038C443.688 56.1313 446.755 56.4608 449.69 57.3924C451.984 58.0895 454.126 59.2113 456.103 60.7576C458.08 62.304 459.665 64.0848 460.856 66.1001C461.49 67.2599 461.946 68.5211 462.225 69.8709C462.504 71.2272 462.72 72.558 462.878 73.8762C463.353 78.2111 463.55 82.5079 463.474 86.7604C463.391 91.0192 463.277 95.3477 463.119 99.7586C463.036 101.774 462.859 103.783 462.58 105.792C462.301 107.807 461.604 109.702 460.495 111.483C459.544 113.029 458.391 114.195 457.041 114.962C455.134 115.894 453.068 116.236 450.843 116.008V115.995Z" fill="white"/>
<path d="M492.227 114.569C490.642 115.279 489.001 115.678 487.303 115.754C485.604 115.83 483.925 115.792 482.264 115.634C480.604 115.476 478.905 115.019 477.163 114.271C475.42 113.524 474.038 112.472 473.012 111.128C471.826 109.392 471.072 107.471 470.755 105.374C470.439 103.282 470.204 101.203 470.046 99.1438C469.811 95.823 469.729 92.5592 469.811 89.3587C469.887 86.1583 470.008 82.8945 470.166 79.5736C470.166 79.3391 470.185 78.8258 470.223 78.0336C470.261 77.2414 470.299 76.4302 470.343 75.6C470.382 74.7698 470.42 73.9776 470.464 73.2298C470.502 72.482 470.521 71.9813 470.521 71.7468C470.679 70.0103 470.857 68.2675 471.053 66.5247C471.25 64.7882 471.782 63.1659 472.657 61.6639C473.366 60.4027 474.355 59.3507 475.623 58.5205C476.884 57.6903 478.234 57.1579 479.653 56.9171C481.39 56.6826 483.133 56.5432 484.869 56.4988C486.606 56.4608 488.31 56.6763 489.971 57.1516C491.631 57.6269 493.209 58.3937 494.718 59.4648C496.219 60.5295 497.367 61.8603 498.159 63.4384C499.109 65.2572 499.642 67.1775 499.762 69.1928C499.883 71.2081 499.902 73.2044 499.819 75.1817C499.819 75.581 499.781 76.3859 499.699 77.6153C499.616 78.8448 499.54 80.125 499.464 81.4685C499.382 82.8121 499.306 84.0986 499.23 85.3217C499.147 86.5512 499.109 87.3561 499.109 87.7553C499.027 89.9671 498.97 92.1409 498.932 94.2766C498.894 96.4123 498.793 98.5861 498.634 100.798C498.476 102.382 498.279 103.998 498.038 105.659C497.804 107.319 497.329 108.904 496.612 110.406C495.744 112.3 494.28 113.688 492.221 114.557L492.227 114.569ZM492.823 49.0966C491.397 49.4959 489.8 49.7304 488.019 49.8064C486.238 49.8888 484.476 49.7684 482.74 49.4515C480.997 49.1346 479.381 48.6023 477.879 47.8481C476.377 47.1003 475.23 46.0863 474.438 44.8251C473.962 44.033 473.626 43.0887 473.43 41.9796C473.233 40.8705 473.17 39.7044 473.252 38.4813C473.328 37.2582 473.531 36.0921 473.848 34.983C474.165 33.8739 474.596 32.9297 475.154 32.1375C476.339 30.4771 477.961 29.2539 480.015 28.4617C481.751 27.828 483.551 27.5745 485.414 27.6886C487.271 27.809 489.071 28.1068 490.814 28.5758C492.632 29.1272 494.35 30.0208 495.972 31.2439C497.595 32.4734 498.64 33.9944 499.116 35.8132C499.826 38.5827 499.629 41.2698 498.52 43.8809C497.411 46.4919 495.516 48.2284 492.829 49.0966H492.823Z" fill="white"/>
<path d="M534.004 116.223C533.294 116.54 532.559 116.724 531.811 116.762C531.057 116.8 530.252 116.819 529.377 116.819C527.717 116.819 526.037 116.642 524.339 116.28C522.64 115.919 520.999 115.342 519.415 114.544C518.147 113.904 517.044 112.985 516.094 111.787C515.143 110.589 514.395 109.315 513.838 107.953C513.286 106.597 512.969 105.158 512.887 103.643C512.805 102.129 512.767 100.608 512.767 99.0931C512.767 98.5354 512.786 97.458 512.824 95.861C512.862 94.2639 512.919 92.5655 513.001 90.772C513.077 88.9784 513.141 87.28 513.179 85.6829C513.217 84.0859 513.236 83.0085 513.236 82.4508C512.367 82.4508 511.474 82.3938 510.568 82.2734C509.655 82.153 508.768 81.8551 507.899 81.3735C507.19 80.9742 506.556 80.3975 506.005 79.637C505.453 78.8765 505.054 78.1033 504.819 77.3048C504.585 76.5063 504.446 75.5873 504.401 74.548C504.363 73.5086 504.42 72.4503 504.579 71.3729C504.737 70.2955 504.997 69.2752 505.352 68.3182C505.707 67.3613 506.201 66.6388 506.835 66.1635C507.785 65.2889 508.926 64.7058 510.276 64.427C511.62 64.1481 512.963 63.9707 514.307 63.8883C514.624 60.2949 515.035 56.7206 515.549 53.1716C516.062 49.6226 517.108 46.2067 518.692 42.9302C518.692 42.8542 518.711 42.7908 518.749 42.7528C518.787 42.7147 518.806 42.6514 518.806 42.5753C518.965 41.7007 519.237 40.8579 519.637 40.0593C520.029 39.2608 520.467 38.4623 520.942 37.6638C522.051 36.0667 523.414 34.6534 525.036 33.4113C526.658 32.1755 528.376 31.2375 530.195 30.5974C533.516 29.3236 536.995 28.4807 540.633 28.0815C544.27 27.6822 547.87 27.5618 551.425 27.7202C552.376 27.8026 553.339 27.8216 554.334 27.7773C555.323 27.7392 556.248 27.9167 557.123 28.3159C559.259 29.1145 560.799 30.6355 561.749 32.8663C562.459 34.4633 562.833 36.1428 562.877 37.8982C562.915 39.6537 562.738 41.3332 562.345 42.9302C561.946 44.5273 561.198 45.9849 560.089 47.3031C558.98 48.6213 557.674 49.5973 556.172 50.2373C554.829 50.795 553.441 51.0739 552.021 51.0739C550.601 51.0739 549.214 51.3527 547.87 51.9104C546.603 52.4681 545.658 53.3491 545.025 54.5468C544.156 56.0615 543.599 57.6839 543.364 59.395C543.13 61.1125 542.927 62.849 542.768 64.6044C544.587 64.7629 546.444 64.8833 548.345 64.9657C550.24 65.0481 552.097 65.3649 553.922 65.9226C554.791 66.1635 555.64 66.5057 556.47 66.943C557.3 67.3803 558.029 67.9633 558.663 68.6795C559.138 69.2372 559.531 69.9786 559.848 70.8976C560.165 71.8165 560.361 72.7735 560.444 73.7685C560.52 74.7698 560.482 75.7458 560.323 76.7027C560.165 77.6597 559.924 78.4582 559.613 79.0983C559.138 80.22 558.27 81.0566 557.002 81.6143C556.134 82.0959 555.184 82.3938 554.157 82.5142C553.13 82.6346 552.097 82.736 551.07 82.8121C549.486 82.8945 547.927 82.9325 546.387 82.9325H541.704C541.621 86.7667 541.647 90.5375 541.761 94.2512C541.881 97.965 541.704 101.736 541.228 105.57C541.07 106.926 540.772 108.244 540.341 109.525C539.904 110.805 539.289 111.958 538.503 112.998C537.869 113.714 537.179 114.354 536.425 114.911C535.67 115.469 534.859 115.906 533.991 116.23L534.004 116.223Z" fill="white"/>
<path d="M591.649 144.222C589.989 144.381 588.272 144.298 586.491 143.988C584.71 143.671 583.227 142.923 582.042 141.732C581.174 140.94 580.521 139.913 580.084 138.645C579.646 137.378 579.393 136.072 579.31 134.729C579.228 133.385 579.348 132.061 579.665 130.755C579.982 129.45 580.496 128.284 581.205 127.257C582.156 125.913 583.36 124.785 584.824 123.879C586.288 122.966 587.689 122.079 589.032 121.211C590.376 120.343 591.662 119.392 592.885 118.365C594.108 117.339 595.16 116.154 596.029 114.81C596.821 113.701 597.455 112.554 597.924 111.369C598.399 110.184 598.83 108.954 599.229 107.693C594.406 107.693 589.621 106.901 584.875 105.323C581.155 104.062 577.954 102.04 575.267 99.2706C573.683 97.6925 572.358 95.8927 571.293 93.871C570.229 91.8557 569.297 89.777 568.505 87.6413C566.211 80.9996 565.419 74.1614 566.135 67.1205C566.369 65.1432 566.845 63.1659 567.561 61.1886C568.27 59.2113 569.418 57.5889 571.002 56.3277C572.029 55.4595 573.195 54.8257 574.5 54.4328C575.806 54.0399 577.13 53.8371 578.474 53.8371C579.9 53.761 581.338 53.9575 582.802 54.4328C584.266 54.9081 585.508 55.6179 586.541 56.5685C587.651 57.5952 588.481 58.8247 589.032 60.2443C589.583 61.6702 590.021 63.1342 590.338 64.6362C590.731 66.6958 590.946 68.7492 590.99 70.8025C591.028 72.8622 591.326 74.9156 591.878 76.9689C592.67 79.8968 594.21 82.229 596.504 83.9655C597.138 84.5169 597.867 84.9352 598.697 85.2077C599.527 85.4865 600.376 85.664 601.244 85.74C601.72 82.4192 601.897 79.0983 601.777 75.7775C601.656 72.4566 601.675 69.1358 601.834 65.8149C601.91 64.7059 602.03 63.6222 602.189 62.5511C602.347 61.4864 602.664 60.4344 603.139 59.4077C603.532 58.6155 604.204 57.9057 605.155 57.272C606.105 56.6382 607.17 56.1059 608.355 55.6686C609.54 55.2377 610.744 54.8954 611.974 54.6609C613.197 54.4265 614.249 54.268 615.117 54.1856C616.619 54.1096 618.121 54.287 619.623 54.718C621.125 55.1553 622.393 55.8841 623.419 56.9108C624.288 57.779 624.997 58.7296 625.555 59.7563C626.106 60.783 626.544 61.854 626.861 62.9567C627.57 65.4854 627.944 68.0964 627.989 70.7835C628.027 73.4706 627.97 76.1197 627.811 78.7307C627.26 84.8971 626.702 91.1079 626.151 97.3503C625.599 103.599 624.37 109.683 622.475 115.615C621.607 118.068 620.555 120.438 619.332 122.732C618.102 125.026 616.74 127.2 615.238 129.253C613.495 131.623 611.581 133.861 609.483 135.952C607.386 138.043 605.072 139.805 602.544 141.231C600.883 142.099 599.121 142.771 597.265 143.246C595.408 143.722 593.525 144.039 591.63 144.197L591.649 144.222Z" fill="white"/>
</svg>
