<svg width="18" height="19" viewBox="0 0 18 19" fill="none" xmlns="http://www.w3.org/2000/svg">
<path d="M10.9715 7.46727C11.6446 8.14142 12.9179 7.95925 13.8154 7.06038C14.7129 6.1615 14.8948 4.88631 14.2217 4.21215C13.5485 3.53799 12.2753 3.72016 11.3778 4.61904C10.4803 5.51792 10.2984 6.79311 10.9715 7.46727Z" fill="#808080"/>
<path d="M17.7876 4.22609C17.3796 5.95186 16.2864 8.30546 13.6918 11.2212L13.4228 13.9305C13.3507 14.5799 13.0602 15.1853 12.5989 15.6473L9.91882 18.3315C9.74395 18.5066 9.4768 18.55 9.2556 18.4392C9.03441 18.3285 8.90879 18.0884 8.94376 17.8432L9.24851 15.7067C9.2935 15.3913 9.23303 15.0394 9.09997 14.631C9.01459 14.369 8.92015 14.1374 8.82006 13.8921C8.78981 13.8179 8.75904 13.7425 8.72785 13.6645C7.81071 13.4428 6.95269 12.9195 6.26237 12.2281C5.57191 11.5366 5.04936 10.6771 4.82798 9.75833C4.74974 9.72696 4.67402 9.69602 4.59958 9.6656C4.35517 9.56572 4.12452 9.47146 3.86311 9.3861C3.45532 9.25292 3.1039 9.19238 2.78903 9.23743L0.655819 9.54264C0.410999 9.57766 0.171275 9.45186 0.060676 9.23032C-0.0499226 9.00879 -0.00657899 8.74124 0.168293 8.5661L2.84842 5.88191C3.30968 5.41994 3.9142 5.12895 4.56253 5.05681L4.56936 5.05609L7.26951 4.78827C10.1303 2.24485 12.4728 1.15489 14.2012 0.733826C15.2031 0.48976 15.9902 0.472653 16.541 0.522799C16.8159 0.547825 17.0305 0.58947 17.1822 0.62721C17.258 0.646072 17.318 0.66394 17.3619 0.678236C17.5697 0.745828 17.6757 0.824987 17.7571 1.00923L17.7577 1.01047C17.7693 1.03699 17.7797 1.0641 17.7896 1.0913C17.8054 1.13491 17.8252 1.1943 17.8463 1.26926C17.8885 1.41925 17.9356 1.63118 17.9665 1.90316C18.0282 2.44832 18.0236 3.228 17.7876 4.22609ZM12.3564 12.635L12.4011 12.5902L12.2804 13.8065C12.2366 14.195 12.0624 14.557 11.7864 14.8335L10.3251 16.297L10.3861 15.8695C10.4673 15.2998 10.3478 14.7511 10.1924 14.274C10.139 14.1103 10.0746 13.9372 10.0078 13.7664C10.8379 13.6937 11.6531 13.3394 12.3564 12.635ZM5.8561 6.12477C5.1528 6.82914 4.79911 7.64544 4.72644 8.47672C4.55574 8.4099 4.38276 8.3453 4.21935 8.29194C3.74308 8.1364 3.19524 8.01677 2.62652 8.09814L2.19965 8.15921L3.66096 6.69568C3.93697 6.41925 4.29847 6.24485 4.68629 6.20098L5.90031 6.08056L5.8561 6.12477ZM16.437 1.66893C16.0102 1.63007 15.35 1.63839 14.4728 1.85208C12.7199 2.27911 10.0668 3.53521 6.66864 6.93855C5.97162 7.63663 5.77018 8.44671 5.89659 9.24583C6.01681 10.0058 6.43992 10.7784 7.07491 11.4143C7.70972 12.0501 8.48086 12.4738 9.2395 12.5943C10.0376 12.7212 10.8467 12.5195 11.5439 11.8212C15.0074 8.35242 16.2591 5.69628 16.6694 3.9609C16.8746 3.09302 16.8716 2.447 16.8247 2.03295C16.8103 1.90573 16.7916 1.79975 16.7733 1.71533C16.6844 1.69831 16.5721 1.68123 16.437 1.66893Z" fill="#808080"/>
<path d="M7.88499 14.1561C7.15769 13.7712 6.46513 13.245 5.85609 12.635C5.20976 11.9877 4.6576 11.2462 4.26829 10.4688C3.02864 11.5847 2.05755 16.1547 2.19966 16.297C2.34048 16.438 6.62682 15.2886 7.88499 14.1561Z" fill="#808080"/>
</svg>
