<svg width="32" height="32" viewBox="0 0 32 32" fill="none" xmlns="http://www.w3.org/2000/svg">
<circle cx="16" cy="16" r="16" fill="white"/>
<path d="M16 19.5001C14.067 19.5001 12.5 17.9331 12.5 16.0001C12.5 14.0671 14.067 12.5001 16 12.5001C17.933 12.5001 19.5 14.0671 19.5 16.0001C19.5 17.9331 17.933 19.5001 16 19.5001ZM16 20.6667C18.5773 20.6667 20.6667 18.5774 20.6667 16.0001C20.6667 13.4228 18.5773 11.3334 16 11.3334C13.4227 11.3334 11.3333 13.4228 11.3333 16.0001C11.3333 18.5774 13.4227 20.6667 16 20.6667Z" fill="#E84545"/>
<path d="M16 6.66675C16.3222 6.66675 16.5833 6.92792 16.5833 7.25008V9.58341C16.5833 9.90558 16.3222 10.1667 16 10.1667C15.6778 10.1667 15.4167 9.90558 15.4167 9.58341V7.25008C15.4167 6.92792 15.6778 6.66675 16 6.66675Z" fill="#E84545"/>
<path d="M16 21.8334C16.3222 21.8334 16.5833 22.0946 16.5833 22.4167V24.7501C16.5833 25.0722 16.3222 25.3334 16 25.3334C15.6778 25.3334 15.4167 25.0722 15.4167 24.7501V22.4167C15.4167 22.0946 15.6778 21.8334 16 21.8334Z" fill="#E84545"/>
<path d="M25.3333 16.0001C25.3333 16.3222 25.0722 16.5834 24.75 16.5834H22.4167C22.0945 16.5834 21.8333 16.3222 21.8333 16.0001C21.8333 15.6779 22.0945 15.4167 22.4167 15.4167H24.75C25.0722 15.4167 25.3333 15.6779 25.3333 16.0001Z" fill="#E84545"/>
<path d="M10.1667 16.0001C10.1667 16.3222 9.90549 16.5834 9.58332 16.5834H7.24999C6.92782 16.5834 6.66666 16.3222 6.66666 16.0001C6.66666 15.6779 6.92782 15.4167 7.24999 15.4167H9.58332C9.90549 15.4167 10.1667 15.6779 10.1667 16.0001Z" fill="#E84545"/>
<path d="M22.5997 9.40045C22.8275 9.62826 22.8275 9.99761 22.5997 10.2254L20.9497 11.8753C20.7219 12.1031 20.3526 12.1031 20.1248 11.8753C19.897 11.6475 19.897 11.2782 20.1248 11.0504L21.7747 9.40045C22.0025 9.17265 22.3718 9.17265 22.5997 9.40045Z" fill="#E84545"/>
<path d="M11.8752 20.1249C12.103 20.3527 12.103 20.7221 11.8752 20.9499L10.2253 22.5998C9.99748 22.8276 9.62813 22.8276 9.40032 22.5998C9.17252 22.372 9.17252 22.0026 9.40032 21.7748L11.0502 20.1249C11.278 19.8971 11.6474 19.8971 11.8752 20.1249Z" fill="#E84545"/>
<path d="M22.5997 22.5998C22.3718 22.8276 22.0025 22.8276 21.7747 22.5998L20.1248 20.9499C19.897 20.7221 19.897 20.3527 20.1248 20.1249C20.3526 19.8971 20.7219 19.8971 20.9497 20.1249L22.5997 21.7748C22.8275 22.0026 22.8275 22.372 22.5997 22.5998Z" fill="#E84545"/>
<path d="M11.8752 11.8753C11.6474 12.1031 11.278 12.1031 11.0502 11.8753L9.40033 10.2254C9.17252 9.99762 9.17252 9.62827 9.40033 9.40047C9.62813 9.17266 9.99748 9.17266 10.2253 9.40047L11.8752 11.0504C12.103 11.2782 12.103 11.6475 11.8752 11.8753Z" fill="#E84545"/>
</svg>
